# xmcd
#
# Track frame offsets: 
#        150
#        16137
#        42082
#        54695
#        74385
#        91575
#        116630
#        136790
#        151883
#        177561
#        198816
#        214811
#        232051
#
# Disc length: 3278 seconds
#
# Revision: 2
# Processed by: cddbd v1.5.2PL0 Copyright (c) Steve Scherf et al.
# Submitted via: ExactAudioCopy v0.99pb5
#
DISCID=ab0ccc0d
DTITLE=Too Slim And The Taildraggers - Lucky 13
DYEAR=2005
DGENRE=Blues
TTITLE0=The Stumble
TTITLE1=Long Tailed Black Cat
TTITLE2=Quiet Whiskey
TTITLE3=Swingin' In The Underworld
TTITLE4=You Upsets Me
TTITLE5=Face Up
TTITLE6=No Quarter
TTITLE7=Won't Let Go
TTITLE8=Double Trouble
TTITLE9=Ol Man Cole
TTITLE10=Rock 'Em Dead
TTITLE11=Dat's Right
TTITLE12=Rumble
EXTD=
EXTT0=
EXTT1=
EXTT2=
EXTT3=
EXTT4=
EXTT5=
EXTT6=
EXTT7=
EXTT8=
EXTT9=
EXTT10=
EXTT11=
EXTT12=
PLAYORDER=
